<svg width="48" height="48" viewBox="0 0 48 48" fill="none" xmlns="http://www.w3.org/2000/svg">
<g clip-path="url(#clip0_149_600)">
<path d="M37.3218 0H10.6782C4.78081 0 0 4.78081 0 10.6782V37.3218C0 43.2192 4.78081 48 10.6782 48H37.3218C43.2192 48 48 43.2192 48 37.3218V10.6782C48 4.78081 43.2192 0 37.3218 0Z" fill="url(#paint0_linear_149_600)"/>
<path d="M22.5343 42.0227C21.1023 41.5107 20.7957 40.8149 20.2077 36.7357C19.525 31.9953 19.3759 29.0611 19.7716 28.1318C20.2958 26.8995 21.7203 26.2 23.7102 26.1925C25.686 26.184 27.1227 26.8902 27.6488 28.1318C28.0464 29.0592 27.8973 31.9953 27.2137 36.7357C26.7495 40.0478 26.4944 40.8852 25.8539 41.4479C24.9743 42.2272 23.7261 42.4429 22.5418 42.0237L22.5343 42.0227ZM16.4182 37.1586C11.4734 34.7261 8.30567 30.6112 7.15411 25.1366C6.86622 23.7234 6.81745 20.354 7.0894 19.0561C7.8096 15.5761 9.18622 12.8548 11.4734 10.4485C14.7696 6.97316 19.0102 5.13609 23.7299 5.13609C28.4018 5.13609 32.6254 6.9394 35.842 10.3106C38.2895 12.8548 39.6652 15.5471 40.3694 19.0946C40.6095 20.2752 40.6095 23.4945 40.3854 24.8224C39.6383 29.0451 37.3239 32.8299 33.9055 35.4191C32.6864 36.3371 29.7137 37.9407 29.2336 37.9407C29.0573 37.9407 29.0413 37.7588 29.122 37.0207C29.2655 35.8364 29.4099 35.5907 30.0813 35.3084C31.1541 34.8611 32.978 33.5614 34.0977 32.4379C36.0502 30.4866 37.4378 28.0429 38.1132 25.3663C38.5296 23.7187 38.4817 20.0549 38.0194 18.3585C36.5593 12.9617 32.1613 8.7699 26.7701 7.65022C25.2012 7.3295 22.3533 7.3295 20.7685 7.65022C15.3126 8.7699 10.801 13.1699 9.4216 18.7054C9.054 20.2058 9.054 23.8734 9.4216 25.3776C10.334 29.0414 12.7037 32.4014 15.8058 34.4016C16.3331 34.7538 16.8839 35.0693 17.4544 35.3459C18.1259 35.6338 18.2703 35.8739 18.3978 37.0573C18.4775 37.7775 18.4616 37.9857 18.2862 37.9857C18.1737 37.9857 17.3578 37.634 16.4942 37.2177L16.4182 37.1586ZM16.482 30.6515C14.8175 29.3236 13.3461 26.968 12.7375 24.6583C12.3699 23.2629 12.3699 20.61 12.7535 19.2193C13.7615 15.4627 16.5298 12.55 20.3699 11.1818C21.6828 10.7186 24.5898 10.6192 26.2093 10.9708C31.7768 12.2087 35.7294 17.7846 34.9652 23.3154C34.6613 25.5445 33.8933 27.375 32.5335 29.0751C31.8612 29.9341 30.2295 31.3764 29.9416 31.3764C29.8938 31.3764 29.8478 30.8325 29.8478 30.1695V28.9635L30.6805 27.9714C33.8164 24.2147 33.5923 18.9689 30.1685 15.5236C28.8407 14.1836 27.3046 13.3958 25.3203 13.0329C24.0403 12.7957 23.7683 12.7957 22.4245 13.017C20.384 13.3499 18.8039 14.1423 17.4 15.5283C13.9538 18.9296 13.7297 24.2082 16.8664 27.9676L17.6917 28.9635V30.1826C17.6917 30.855 17.6382 31.4017 17.5726 31.4017C17.5069 31.4017 17.0446 31.0819 16.5486 30.6815L16.482 30.6515ZM22.0335 24.1191C20.61 23.4561 19.842 22.207 19.826 20.5781C19.826 19.1143 20.6419 17.8371 22.0494 17.0897C22.9459 16.6208 24.5298 16.6208 25.4254 17.0897C26.4197 17.6266 27.1657 18.5297 27.5053 19.6075C28.4337 22.7631 25.0896 25.5276 22.0663 24.1153L22.0335 24.1191Z" fill="white"/>
<path d="M23.9821 24.7371C26.1858 24.7371 27.9723 22.9506 27.9723 20.7469C27.9723 18.5432 26.1858 16.7568 23.9821 16.7568C21.7784 16.7568 19.9919 18.5432 19.9919 20.7469C19.9919 22.9506 21.7784 24.7371 23.9821 24.7371Z" fill="white"/>
<path d="M24.3686 26.2834C24.8211 26.3351 25.2682 26.4261 25.7049 26.5554C26.1826 26.7076 26.6338 26.9331 27.0421 27.224C27.3947 27.48 27.6507 27.7454 27.8102 28.068C27.9696 28.3906 28.0502 28.7751 28.098 29.4043C28.1299 30.0345 28.1299 30.9047 27.9865 32.5401C27.843 34.1756 27.5542 36.5528 27.33 38.0804C27.1059 39.608 26.9465 40.2888 26.7383 40.7849C26.5991 41.1735 26.3629 41.5202 26.052 41.7918C25.7411 42.0634 25.366 42.2511 24.9622 42.3369C24.6574 42.4009 24.346 42.4277 24.0348 42.4166C23.7232 42.4265 23.4116 42.3997 23.1064 42.3369C22.7388 42.2562 22.2624 42.1128 21.906 41.8249C21.5384 41.537 21.2984 41.1206 21.1061 40.5767C20.9139 40.0328 20.7704 39.3764 20.5782 38.0645C20.3859 36.7525 20.1299 34.8011 19.9705 33.3129C19.8111 31.8246 19.7464 30.8006 19.7333 30.1123C19.7201 29.424 19.7492 29.0808 19.827 28.7525C19.9016 28.4389 20.0315 28.141 20.2106 27.8729C20.3882 27.6218 20.6043 27.4002 20.8511 27.2165C21.0774 27.042 21.3308 26.9058 21.6013 26.8133C21.9311 26.6859 22.272 26.5896 22.6197 26.5254C23.0351 26.4457 23.5152 26.366 23.7619 26.3331C23.9337 26.2965 24.1114 26.2965 24.2833 26.3331L24.3686 26.2834Z" fill="white"/>
</g>
<defs>
<linearGradient id="paint0_linear_149_600" x1="24.2063" y1="48.6077" x2="23.7993" y2="-0.00187381" gradientUnits="userSpaceOnUse">
<stop stop-color="#822CBE"/>
<stop offset="1" stop-color="#D772FB"/>
</linearGradient>
<clipPath id="clip0_149_600">
<rect width="48" height="48" fill="white"/>
</clipPath>
</defs>
</svg>
