<svg width="53" height="50" viewBox="0 0 53 50" fill="none" xmlns="http://www.w3.org/2000/svg">
<path d="M27.1631 0.734739C13.7602 0.201998 2.46386 10.6349 1.93334 24.0377C1.4006 37.4406 11.8357 48.7347 25.2363 49.2675C38.6392 49.8002 49.9333 39.3674 50.4661 25.9645C50.9966 12.5616 40.5638 1.26526 27.1631 0.734739ZM37.4139 36.313C37.112 36.8457 36.5238 37.1121 35.9511 37.0322C35.7757 37.0078 35.6004 36.9501 35.4361 36.8568C32.2263 35.03 28.728 33.8402 25.0388 33.3208C21.3495 32.8013 17.6581 32.9811 14.0687 33.8535C13.2896 34.0422 12.506 33.5649 12.3174 32.7858C12.1287 32.0067 12.6059 31.2231 13.3851 31.0344C17.3318 30.0755 21.3895 29.8779 25.4428 30.4484C29.496 31.0189 33.3407 32.3263 36.8723 34.3352C37.5671 34.7325 37.8113 35.616 37.4161 36.313H37.4139ZM40.6059 29.9378C40.1109 30.8524 38.9655 31.1942 38.051 30.6992C34.2952 28.6681 30.2286 27.3341 25.9644 26.7347C21.7003 26.1354 17.425 26.2974 13.2541 27.2142C13.0277 27.263 12.8035 27.2719 12.5859 27.2408C11.829 27.1343 11.1808 26.5705 11.0077 25.778C10.7835 24.7614 11.4272 23.7558 12.4439 23.5316C17.0543 22.5172 21.7802 22.3374 26.4905 22.9989C31.1986 23.6604 35.6936 25.1343 39.8446 27.3807C40.7613 27.8757 41.1009 29.0189 40.6059 29.9356V29.9378ZM44.1442 22.7503C43.6781 23.6471 42.708 24.111 41.7624 23.9778C41.5071 23.9423 41.2563 23.8624 41.0144 23.7381C36.6414 21.4628 31.9311 19.96 27.0144 19.2697C22.0976 18.5794 17.1542 18.7259 12.324 19.707C11.0676 19.9623 9.84455 19.1498 9.58928 17.8957C9.33401 16.6393 10.1464 15.4162 11.4006 15.1609C16.7502 14.0755 22.2197 13.9134 27.6603 14.677C33.1009 15.4406 38.3129 17.1054 43.1564 19.6249C44.2929 20.2153 44.7347 21.616 44.1442 22.7525V22.7503Z" fill="#1ED760"/>
</svg>
